{"asset":{"version":"2.0","generator":"VECTARY"},"nodes":[{"translation":[0.00043733978271484375,2.0816681711721686e-20,-0.00009660148620605468],"scale":[0.001,0.001,0.001],"rotation":[-0.7071067811865475,0,0,0.7071067811865476],"name":"Merged Objects","mesh":0}],"materials":[{"pbrMetallicRoughness":{"baseColorFactor":[0.8670237934377415,0.8670237934377415,0.8670237934377415,1],"metallicFactor":0,"roughnessFactor":0.2},"name":"Mermaid","emissiveFactor":[0,0,0],"extensions":{},"alphaMode":"OPAQUE","doubleSided":false}],"meshes":[{"primitives":[{"mode":4,"attributes":{"POSITION":1,"NORMAL":2,"TEXCOORD_0":3},"material":0,"indices":0}]}],"accessors":[{"bufferView":0,"byteOffset":0,"componentType":5125,"count":1620,"type":"SCALAR"},{"bufferView":1,"byteOffset":0,"componentType":5126,"count":378,"max":[40.5921516418457,40.71710968017578,140.8428192138672],"min":[-40.5921516418457,-40.71710968017578,0],"type":"VEC3"},{"bufferView":2,"byteOffset":0,"componentType":5126,"count":378,"type":"VEC3"},{"bufferView":3,"byteOffset":0,"componentType":5126,"count":378,"type":"VEC2"}],"bufferViews":[{"buffer":0,"byteOffset":0,"byteLength":6480,"target":34963},{"buffer":0,"byteOffset":6480,"byteLength":4536,"target":34962},{"buffer":0,"byteOffset":11016,"byteLength":4536,"target":34962},{"buffer":0,"byteOffset":15552,"byteLength":3024,"target":34962}],"scene":0,"scenes":[{"nodes":[0],"name":"Project Name"}],"extensionsUsed":["KHR_texture_transform"],"buffers":[{"byteLength":18576,"uri":"data:application/octet-stream;base64,"}]}